<svg xmlns="http://www.w3.org/2000/svg" xmlns:xlink="http://www.w3.org/1999/xlink" width="356" height="356" viewBox="0 0 356 356">
  <defs>
    <clipPath id="clip-path">
      <rect id="矩形_127" data-name="矩形 127" width="356" height="356" transform="translate(-0.189)" fill="#2a8356" stroke="#707070" stroke-width="1"/>
    </clipPath>
  </defs>
  <g id="组_197" data-name="组 197" transform="translate(0.188)" clip-path="url(#clip-path)">
    <path id="路径_92" data-name="路径 92" d="M-2879.26-674.521-2930.742-726l-58.639,5.874,5.855-58.665L-3035-830.26l51.467-51.475-5.855-58.647,58.639,5.864L-2879.26-986l51.465,51.475,58.648-5.865-5.863,58.639,51.49,51.492-51.475,51.474,5.865,58.647-58.648-5.873-51.482,51.491Zm0-266.982L-2990.5-830.26l111.242,111.242,111.244-111.242Zm-27.588,138.831-61.406-27.588,61.406-27.589,27.588-61.405,27.59,61.405,61.4,27.589-61.4,27.588-27.59,61.406Z" transform="translate(3057.249 1008.257)" fill="#2a8356"/>
  </g>
</svg>
